<svg width="48" height="48" viewBox="0 0 48 48" fill="none" xmlns="http://www.w3.org/2000/svg">
<rect width="48" height="48" rx="12" fill="url(#paint0_linear_190_68)"/>
<g clip-path="url(#clip0_190_68)">
<path d="M29.4461 18.0469C30.6635 18.2658 31.6619 18.922 32.4424 20.0156C33.1291 20.9845 33.5974 22.2033 33.8467 23.6719C34.0656 25.0158 34.0492 26.3592 33.7999 27.7031C33.4253 29.9217 32.6763 31.7812 31.5527 33.2812C30.2102 35.0939 28.525 36 26.4963 36C25.9966 36 25.451 35.8439 24.8575 35.5312C24.4516 35.2814 23.9992 35.1562 23.4995 35.1562C22.9999 35.1562 22.548 35.2814 22.1416 35.5312C21.5481 35.8439 21.0025 36 20.5028 36C18.4741 36 16.7889 35.0939 15.4464 33.2812C14.3228 31.7812 13.5738 29.9217 13.1992 27.7031C12.9499 26.3592 12.9335 25.0158 13.1524 23.6719C13.4017 22.2033 13.87 20.9845 14.5567 20.0156C15.3372 18.922 16.3356 18.2658 17.553 18.0469C18.302 17.9217 19.3319 18.0314 20.643 18.375C21.7666 18.6877 22.7186 19.0627 23.4991 19.5C24.2795 19.0627 25.2316 18.6877 26.3552 18.375C27.6667 18.0314 28.697 17.9217 29.4461 18.0469ZM26.8708 16.125C26.4339 16.5314 25.856 16.8281 25.1383 17.0156C24.6386 17.1717 24.093 17.25 23.4995 17.25L22.7974 17.2031C22.735 16.7658 22.735 16.2656 22.7974 15.7031C22.9225 14.5781 23.2811 13.7189 23.8741 13.125C24.311 12.7186 24.8889 12.4219 25.6066 12.2344C26.1063 12.0783 26.6519 12 27.2453 12L27.9475 12.0469L27.9944 12.75C27.9944 13.3439 27.9161 13.8905 27.7605 14.3906C27.5735 15.1092 27.2772 15.6877 26.8708 16.125Z" fill="white"/>
</g>
<defs>
<linearGradient id="paint0_linear_190_68" x1="0" y1="0" x2="48" y2="48" gradientUnits="userSpaceOnUse">
<stop stop-color="#294B71"/>
<stop offset="1" stop-color="#5E6098"/>
</linearGradient>
<clipPath id="clip0_190_68">
<rect width="21" height="24" fill="white" transform="translate(13 12)"/>
</clipPath>
</defs>
</svg>
