<svg width="400" height="336" viewBox="0 0 400 336" fill="none" xmlns="http://www.w3.org/2000/svg">
<path d="M394.195 138.707C380.98 181.018 353.529 218.277 322.767 249.349C288.326 284.133 247.313 314.236 203.495 335.856C203.194 336.004 202.849 336.039 202.523 335.955C201.558 335.696 200.504 335.273 199.361 334.688C179.394 324.397 162.72 313.747 145.232 301.78C144.749 301.447 144.396 301.128 144.171 300.822C144.096 300.722 144.043 300.607 144.018 300.485C143.992 300.362 143.994 300.235 144.024 300.114C144.053 299.992 144.109 299.879 144.188 299.782C144.267 299.685 144.366 299.607 144.478 299.554C154.818 294.723 164.791 289.503 174.388 283.285C195.772 269.431 213.061 254.13 231.025 235.335C248.546 217.01 263.159 197.114 274.864 175.648C295.018 138.698 305.814 92.315 282.725 53.5381C272.167 35.8016 254.342 24.3332 233.404 24.0038C230.635 23.9573 228.236 23.9007 226.207 23.8342C224.812 23.7876 224.707 23.3917 225.89 22.6464C250.575 7.12568 276.569 -1.74757 306.032 0.288587C326.058 1.6793 343.724 8.15708 359.031 19.7219C377.206 33.4494 389.536 51.309 396.019 73.3009C402.295 94.5707 400.748 117.707 394.195 138.707Z" fill="#5E6098"/>
<path d="M184.712 40.8602C179.536 47.9549 174.269 54.6193 171.085 63.235C169.562 67.3644 168.41 70.7833 167.628 73.4918C163.827 86.6305 163.645 109.496 177.99 117.311C187.037 122.234 201.645 121.443 207.114 111.437C212.209 102.101 210.289 92.5944 208.489 82.2176C207.95 79.1022 208.159 75.7867 209.116 72.271C211.562 63.3351 220.549 58.4619 229.496 59.2424C245.833 60.6733 253.576 79.2856 255.355 92.9647C259.167 122.244 245.499 153.134 229.567 177.05C209.985 206.42 182.67 233.417 153.04 252.85C140.333 261.196 125.644 268.621 110.864 271.863C108.802 272.313 107.417 271.623 105.749 270.262C99.1176 264.828 91.7985 259.375 85.8341 254.061C68.6282 238.741 53.0398 223.191 38.4017 202.837C19.3559 176.37 4.00003 146.07 0.542683 114.729C-0.0436516 109.432 -0.15487 103.028 0.209061 95.5163C0.532556 88.6385 1.42891 82.3243 2.89812 76.5738C16.404 23.6689 66.3233 -9.90328 121.146 2.62499C144.003 7.83843 164.059 20.9471 181.396 36.1171C182.738 37.2912 183.853 38.6188 184.743 40.0997C184.812 40.2159 184.846 40.3495 184.841 40.4844C184.836 40.6193 184.791 40.7499 184.712 40.8602Z" fill="#70ADD4" fill-opacity="0.984"/>
</svg>
