<svg width="1304" height="347" viewBox="0 0 1304 347" fill="none" xmlns="http://www.w3.org/2000/svg">
<path d="M498.764 281.834C500.752 283.57 502.967 284.877 505.411 285.755C506.803 286.258 508.777 286.553 511.334 286.64C516.495 286.821 520.471 287.092 526.585 286.097C551.907 281.945 591.516 260.36 599.387 234.18C601.074 228.55 602.138 223.714 600.09 218.939C595.361 207.92 579.387 205.407 568.935 204.059C552.509 201.938 534.628 199.887 519.859 196.218C496.676 190.457 479.798 177.226 474.928 152.997C474.54 151.047 474.473 146.992 474.728 140.832C475.601 119.569 487.147 97.139 499.266 80.0981C525.571 43.0505 565.05 12.0049 610.241 2.54439C622.861 -0.0997122 638.052 -0.984434 650.974 1.34801C679.549 6.49547 700.683 29.3574 703.826 58.2415C704 59.8568 704.044 63.3186 703.956 68.6269C703.605 90.5639 692.762 110.953 676.707 125.319C670.181 131.15 662.567 135.316 653.866 137.816C639.237 142.018 632.209 133.825 629.568 120.564C628.671 116.033 630.479 112.796 634.99 110.852C638.169 109.478 641.325 108.054 644.458 106.579C665.091 96.8676 680.663 76.2878 676.205 52.4607C674.518 43.4225 666.205 35.5304 657.681 31.9814C653.785 30.3662 649.147 29.4647 643.765 29.277C618.896 28.4023 595.873 40.4466 577.479 56.3716C556.526 74.4983 538.965 96.385 528.573 122.303C526.458 127.578 524.989 133.031 524.166 138.661C522.288 151.479 533.142 155.882 543.945 158.547C549.554 159.927 558.507 161.358 570.803 162.84C581.506 164.126 592.135 165.872 602.691 168.077C628.343 173.416 654.92 186.576 657.621 215.953C661.215 255.031 631.888 286.7 600.713 305.139C581.208 316.68 560.194 323.909 537.67 326.824C528.102 328.061 517.8 328.654 508.623 326.915C488.971 323.182 475.059 311.714 466.886 292.511C465.962 290.34 465.189 287.515 464.567 284.036C462.057 269.84 467.92 253.011 481.404 246.405C495.631 239.448 509.276 249.17 509.105 264.844C509.092 265.95 508.59 267.535 507.599 269.599C505.692 273.56 502.489 276.335 498.121 276.798C497.886 276.822 497.662 276.908 497.472 277.048C497.281 277.188 497.132 277.377 497.039 277.594C496.946 277.812 496.912 278.05 496.942 278.285C496.972 278.519 497.063 278.742 497.208 278.929C497.69 279.552 498.041 280.256 498.262 281.04C498.349 281.355 498.516 281.62 498.764 281.834Z" fill="#294B71"/>
<path d="M1000 88C1013.25 88 1024 77.2548 1024 64C1024 50.7452 1013.25 40 1000 40C986.745 40 976 50.7452 976 64C976 77.2548 986.745 88 1000 88Z" fill="#294B71"/>
<path d="M1140.48 200.665C1129.39 202.318 1118.99 201.309 1108.09 199.12C1107.76 199.054 1107.48 199.136 1107.25 199.366C1100.8 205.645 1093.7 211.213 1085.97 216.07C1073.58 223.863 1055.71 229.359 1040.59 225.844C1024.2 222.038 1013.34 209.357 1010.6 194.134C1010.54 193.855 1010.38 193.773 1010.1 193.888C1008.71 194.452 1007.49 195.205 1006.44 196.15C1003.94 198.403 1001.39 200.61 998.808 202.772C994.016 206.781 989.266 210.835 984.56 214.935C981.01 218.029 976.307 221.108 970.451 224.172C964.925 227.067 959.184 228.048 953.228 227.115C945.564 225.925 938.871 217.242 937.126 210.856C936.73 209.412 936.155 208.24 936.105 206.741C935.956 202.545 935.857 198.376 936.591 194.27C937.463 189.365 938.643 185.247 940.131 181.916C946.486 167.71 953.466 153.885 960.486 139.951C963.494 133.981 965.394 127.407 966.187 120.231C966.524 117.225 965.295 114.908 968.617 112.756C975.032 108.586 985.551 112.22 990.608 116.534C1000.04 124.582 994.931 136.4 991.134 145.61C990.162 147.96 988.913 150.63 987.386 153.622C980.386 167.365 974.1 181.19 971.185 195.342C970.738 197.476 970.867 199.565 970.828 201.718C970.826 201.785 970.84 201.851 970.871 201.912C970.901 201.973 970.946 202.026 971.003 202.068C971.059 202.11 971.126 202.14 971.197 202.155C971.268 202.17 971.342 202.17 971.413 202.154C972.946 201.839 974.374 201.194 975.696 200.22C986.16 192.517 995.724 185.111 1004.39 178.002C1005.61 177.002 1007.78 175.903 1009.13 174.323C1009.33 174.087 1009.44 173.817 1009.48 173.514C1010.55 163.28 1013.16 154.112 1017.33 146.01C1028.42 124.437 1050.74 108.623 1077.1 107.433C1078.67 107.366 1080.3 107.051 1081.99 106.488C1087.37 104.714 1092.95 104.269 1098.73 105.153C1114.86 107.624 1123.23 121.049 1126.13 134.538C1129.67 151.027 1127.42 166.929 1119.38 182.243C1119.19 182.613 1119.31 182.87 1119.72 183.016C1129.31 186.358 1138.7 185.977 1147.88 181.871C1148.21 181.72 1148.43 181.484 1148.54 181.163L1157.8 153.322C1157.9 153.007 1157.81 152.75 1157.53 152.55C1146.12 144.402 1141.99 129.842 1146.88 117.77C1151.03 107.515 1159 101.556 1171.31 104.962C1176.54 106.409 1180.3 109.398 1182.59 113.927C1185.42 119.477 1187.91 127.471 1194.72 129.832C1199.04 131.34 1205.57 128.443 1211.74 126.526C1216.38 125.082 1222.04 124.164 1227.02 124.709C1234.94 125.581 1249.98 130.614 1252.47 138.734C1252.88 140.048 1252.86 142.037 1252.42 144.702C1249.57 162.26 1247.22 179.818 1244.08 197.34C1242.34 206.977 1246.93 211.528 1257.21 206.732C1263.16 203.953 1268.99 200.074 1274.7 195.096C1282.54 188.266 1290.14 181.269 1297.53 174.105C1297.63 174.002 1297.78 173.941 1297.93 173.936C1298.09 173.931 1298.24 173.982 1298.35 174.078C1304.17 178.81 1306.29 187.721 1300.86 193.389C1289.1 205.66 1277.4 216.588 1263.15 226.062C1253.97 232.16 1245.34 236.277 1237.26 238.415C1222.31 242.375 1200.19 239.56 1196.23 222.555C1195.37 218.892 1195.12 215.186 1195.47 211.437C1197.18 193.101 1200.16 174.94 1204.42 156.955C1204.5 156.598 1204.35 156.462 1203.97 156.547C1196.1 158.327 1189.11 159.045 1181.27 159.408C1180.59 159.438 1180.14 159.75 1179.93 160.343C1172.89 179.782 1166.12 199.066 1157.9 217.75C1155.78 222.583 1153.86 226.261 1152.15 228.787C1148.51 234.2 1123.75 229.604 1129.18 223.3C1134.59 217.015 1137.98 208.567 1140.85 201.073C1140.98 200.746 1140.85 200.61 1140.48 200.665ZM1101.48 133.211C1096.95 136.927 1091.65 138.353 1085.56 137.145C1085.19 137.072 1085.01 137.208 1085 137.553C1084.71 149.244 1091.49 162.133 1099.79 170.662C1099.81 170.677 1099.83 170.689 1099.85 170.696C1099.87 170.702 1099.89 170.704 1099.92 170.7C1099.94 170.697 1099.96 170.688 1099.98 170.675C1100 170.662 1100.01 170.645 1100.02 170.626C1104.83 158.854 1106.52 145.456 1102.08 133.357C1101.96 133.03 1101.76 132.981 1101.48 133.211ZM1062.65 149.353C1056.12 161.216 1051 177.602 1056.46 190.491C1057.82 193.682 1060.2 195.941 1063.6 197.267C1071.94 200.519 1081.58 195.196 1086.5 189.138C1086.59 189.024 1086.63 188.883 1086.62 188.742C1086.61 188.6 1086.55 188.466 1086.44 188.366C1074.49 177.326 1066.81 164.158 1063.37 148.862C1063.37 148.831 1063.35 148.802 1063.32 148.78C1063.3 148.757 1063.27 148.741 1063.24 148.733C1063.2 148.726 1063.17 148.727 1063.13 148.737C1063.1 148.747 1063.07 148.765 1063.05 148.789C1062.9 148.965 1062.76 149.153 1062.65 149.353Z" fill="#294B71"/>
<path d="M845.896 153.961C845.696 154.364 845.629 154.554 845.521 154.827C845.38 155.206 845.505 155.329 845.896 155.196C846.894 154.863 847.5 154 848 153.5C848.608 152.892 849.348 152.038 850.103 151.207C859.173 141.203 868.398 131.344 877.777 121.632C878.978 120.396 880.552 118.956 882.501 117.314C884.726 115.45 886.618 113.415 889.035 111.87C895.579 107.702 900.333 105.049 907.757 105.538C909.538 105.658 911.321 105.811 913.108 105.997C913.145 106.001 913.247 106.044 913.399 106.12C913.55 106.195 913.743 106.299 913.948 106.416C916.294 107.762 918.671 108.29 921.058 110.524C935.087 123.616 924.639 147.059 917.73 161.258C910.074 177.023 896.024 199.758 899.696 217.029C900.404 220.389 902.032 223.331 903.539 226.392C903.691 226.695 903.768 227.029 903.767 227.366C903.765 227.704 903.684 228.036 903.529 228.336C902.589 230.141 901.203 231.627 899.403 232.813C885.909 241.678 867.733 243.912 861.826 225.076C860.586 221.12 860.063 217.035 860.259 212.821C860.4 209.7 861.462 205.751 862.049 202.121C862.312 200.559 862.649 199.153 863.06 197.903C866.196 188.477 869.905 179.27 874.187 170.283C877.046 164.28 879.102 158.021 880.357 151.506C880.518 150.675 880.566 150.18 880.498 150.021C880.06 148.857 879.342 148.651 878.344 149.402C873.913 152.743 869.554 155.914 865.387 159.573C860.356 163.987 855.312 168.388 850.255 172.775C844.308 177.931 837.693 184.143 833.879 190.415C826.961 201.792 827.325 214.466 828.832 228.017C829.621 235.117 818.778 238.986 813.235 239.754C801.199 241.409 792.439 231.258 790.75 220.329C790.244 216.999 789.334 209.052 790.75 206.01C791.371 204.681 791.097 204.465 789.931 205.362C765.16 224.348 706.1 261.541 679.448 223.58C668.524 208.015 671.214 188.431 677.354 171.02C681.548 159.141 687.091 147.903 693.983 137.307C695.412 135.107 696.899 132.943 698.443 130.816C709.994 114.821 727.523 103.574 747.833 104.012C763.177 104.351 776.114 111.032 781.404 125.581C788.06 143.908 778.997 165.367 764.856 178.589C755.902 186.952 744.984 191.911 732.105 193.466C725.581 194.254 717.135 193.885 709.691 193.915C709.354 193.915 709.205 194.081 709.246 194.413C709.62 197.684 709.215 200.985 710.621 203.876C713.514 209.839 718.228 213.319 724.762 214.316C750.332 218.215 778.845 195.46 795.18 177.871C807.021 165.121 814.392 150.2 817.291 133.109C817.918 129.426 817.898 125.69 817.23 121.901C817.118 121.25 817.275 120.578 817.669 120.021C818.063 119.464 818.666 119.063 819.355 118.9C824.513 117.683 835.225 123.068 839.281 125.97C845.734 130.586 850.417 138.873 848.586 146.959C848.033 149.392 847.035 151.661 845.896 153.961ZM741.582 134.814C730.133 142.223 722.192 153.421 716.528 165.347C715.733 167.022 714.866 169.614 713.929 173.124C713.834 173.47 713.925 173.756 714.202 173.982C715.173 174.786 716.319 175.275 717.641 175.448C734.441 177.701 748.046 170.921 758.15 157.988C762.975 151.815 768.902 138.723 760.922 132.561C755.217 128.153 747.024 131.294 741.582 134.814Z" fill="#294B71"/>
<path d="M716.264 306.289C719.599 274.506 759.098 265.178 778.623 286.484C778.913 286.798 779.079 287.219 779.086 287.659C779.093 288.099 778.941 288.525 778.661 288.85L770.59 298.178C770.291 298.525 769.881 298.741 769.44 298.782C768.999 298.824 768.559 298.688 768.208 298.401C760.613 292.24 751.789 289.733 742.755 294.321C733.093 299.224 730.872 311.608 736.39 320.885C743.651 333.097 758.031 331.919 767.769 323.961C768.013 323.76 768.321 323.668 768.627 323.707C771.457 324.022 777.642 331.848 779.805 334.223C779.932 334.364 780.002 334.552 780 334.746C779.998 334.94 779.925 335.124 779.795 335.259C776.184 338.994 772.353 342.06 767.531 343.887C750.56 350.302 730.796 347.338 720.81 329.96C716.852 323.071 715.337 315.181 716.264 306.289Z" fill="#5E6098"/>
<path d="M836.195 329.589L830.722 342.284C830.645 342.462 830.516 342.615 830.349 342.722C830.183 342.829 829.988 342.887 829.788 342.887L812.814 343C812.684 343.001 812.555 342.972 812.439 342.916C812.323 342.86 812.223 342.779 812.147 342.679C812.072 342.578 812.024 342.463 812.007 342.341C811.99 342.22 812.005 342.097 812.05 341.982C812.943 339.664 813.841 337.468 814.741 335.395C822.813 316.873 830.914 298.458 839.045 280.15C839.137 279.947 839.289 279.774 839.482 279.65C839.676 279.526 839.904 279.458 840.138 279.453L856.208 279.001C856.482 278.993 856.752 279.065 856.981 279.206C857.211 279.348 857.388 279.552 857.489 279.792C865.515 298.64 873.586 317.187 881.704 335.432C882.697 337.669 883.459 339.972 883.989 342.34C884.004 342.4 884.004 342.462 883.989 342.522C883.975 342.581 883.946 342.637 883.905 342.685C883.864 342.733 883.812 342.772 883.752 342.799C883.693 342.826 883.627 342.84 883.561 342.84L867.134 342.877C866.18 342.877 865.515 342.463 865.137 341.633L859.605 329.222C859.516 329.03 859.371 328.868 859.187 328.755C859.003 328.643 858.789 328.585 858.572 328.59L836.969 329.081C836.592 329.093 836.334 329.263 836.195 329.589ZM842.164 314.237C842.148 314.282 842.144 314.329 842.151 314.376C842.159 314.422 842.178 314.466 842.207 314.504C842.236 314.542 842.275 314.573 842.319 314.594C842.363 314.615 842.412 314.625 842.462 314.624L853.616 314.501C853.667 314.502 853.717 314.491 853.763 314.468C853.808 314.446 853.847 314.413 853.875 314.373C853.904 314.332 853.921 314.286 853.926 314.238C853.931 314.19 853.924 314.141 853.904 314.096L848.143 300.384C848.121 300.328 848.082 300.281 848.03 300.247C847.979 300.213 847.918 300.195 847.855 300.195C847.793 300.195 847.732 300.213 847.68 300.247C847.629 300.281 847.589 300.328 847.567 300.384L842.164 314.237Z" fill="#5E6098"/>
<path d="M954.177 321.186C956.309 324.836 958.679 328.369 961.286 331.787C963.879 335.179 965.74 338.581 967.926 342.133C967.972 342.207 967.997 342.293 968 342.381C968.003 342.469 967.983 342.556 967.942 342.633C967.901 342.71 967.841 342.774 967.769 342.819C967.696 342.864 967.613 342.887 967.529 342.887L949.886 342.821C949.718 342.821 949.552 342.778 949.403 342.696C949.254 342.614 949.125 342.495 949.027 342.35C945.432 337.085 941.996 331.645 938.72 326.029C938.389 325.458 937.856 324.858 937.121 324.23C936.901 324.042 936.62 323.948 936.335 323.966L932.36 324.286C932.159 324.3 931.97 324.394 931.833 324.548C931.695 324.702 931.619 324.905 931.619 325.115V342.416C931.619 342.767 931.454 342.943 931.123 342.943L916.921 343C916.566 343.006 916.37 342.824 916.334 342.453C916.117 340.431 916.012 338.436 916.018 336.47C916.054 318.334 916.048 299.702 916 280.574C916 279.883 916.331 279.525 916.994 279.499C924.883 279.185 932.95 279.019 941.195 279C945.848 278.991 950.057 279.707 954.222 281.035C957.817 282.185 962.786 287.094 964.529 290.807C969.986 302.435 965.875 314.958 954.466 320.215C954.382 320.253 954.306 320.31 954.245 320.381C954.184 320.453 954.138 320.537 954.11 320.629C954.083 320.721 954.075 320.818 954.086 320.914C954.098 321.01 954.128 321.103 954.177 321.186ZM931.484 294.953L931.719 308.946C931.72 309.059 931.743 309.171 931.786 309.275C931.829 309.38 931.891 309.474 931.969 309.553C932.047 309.632 932.14 309.694 932.241 309.735C932.342 309.776 932.45 309.796 932.559 309.794L940.147 309.652C942.722 309.604 945.177 308.767 946.973 307.325C948.768 305.883 949.758 303.954 949.723 301.963L949.714 301.276C949.699 300.289 949.432 299.316 948.93 298.413C948.427 297.509 947.698 296.694 946.784 296.012C945.87 295.33 944.79 294.796 943.605 294.439C942.419 294.083 941.152 293.912 939.876 293.935L932.297 294.077C932.188 294.078 932.081 294.102 931.981 294.146C931.881 294.191 931.791 294.256 931.715 294.338C931.639 294.419 931.58 294.516 931.54 294.621C931.501 294.727 931.481 294.84 931.484 294.953Z" fill="#5E6098"/>
<path d="M1047.53 295.276C1037.5 294.834 1027.43 294.85 1017.32 295.323L1017.41 302.648C1017.41 303.039 1017.61 303.231 1018.02 303.225L1043.63 303.168C1044 303.168 1044.18 303.345 1044.18 303.698L1044.28 319.748C1044.28 319.815 1044.26 319.88 1044.23 319.937C1044.19 319.995 1044.14 320.043 1044.08 320.078C1044.02 320.112 1043.96 320.131 1043.89 320.133C1043.82 320.135 1043.75 320.12 1043.69 320.089L1043.29 319.89C1043.13 319.814 1042.95 319.773 1042.77 319.767C1034.64 319.508 1026.52 319.549 1018.41 319.89C1017.9 319.909 1017.65 320.161 1017.67 320.647L1017.86 327.537C1017.86 327.66 1017.91 327.778 1018 327.865C1018.1 327.952 1018.22 328 1018.35 328L1051.46 327.707C1051.82 327.707 1052 327.877 1052 328.218V342.375C1052 342.798 1051.78 343.006 1051.34 343L1000.93 342.962C1000.68 342.962 1000.45 342.867 1000.27 342.699C1000.1 342.53 1000 342.301 1000 342.063L1000.04 280.333C1000.04 279.702 1000.37 279.383 1001.02 279.377C1017.46 279.112 1034.16 278.696 1050.78 279.348C1050.87 279.351 1050.96 279.37 1051.04 279.405C1051.12 279.44 1051.2 279.491 1051.26 279.553C1051.32 279.615 1051.37 279.689 1051.4 279.769C1051.43 279.849 1051.45 279.935 1051.45 280.02L1051.14 294.888C1051.12 295.234 1050.94 295.436 1050.58 295.493C1049.44 295.689 1048.42 295.616 1047.53 295.276Z" fill="#5E6098"/>
<path d="M394.195 138.707C380.98 181.018 353.529 218.277 322.767 249.349C288.326 284.133 247.313 314.236 203.495 335.856C203.194 336.004 202.849 336.039 202.523 335.955C201.558 335.696 200.504 335.273 199.361 334.688C179.394 324.397 162.72 313.747 145.232 301.78C144.749 301.447 144.396 301.128 144.171 300.822C144.096 300.722 144.043 300.607 144.018 300.485C143.992 300.362 143.994 300.235 144.024 300.114C144.053 299.992 144.109 299.879 144.188 299.782C144.267 299.685 144.366 299.607 144.478 299.554C154.818 294.723 164.791 289.503 174.388 283.285C195.772 269.431 213.061 254.13 231.025 235.335C248.546 217.01 263.159 197.114 274.864 175.648C295.018 138.698 305.814 92.315 282.725 53.5381C272.167 35.8016 254.342 24.3332 233.404 24.0038C230.635 23.9573 228.236 23.9007 226.207 23.8342C224.812 23.7876 224.707 23.3917 225.89 22.6464C250.575 7.12568 276.569 -1.74757 306.032 0.288587C326.058 1.6793 343.724 8.15708 359.031 19.7219C377.206 33.4494 389.536 51.309 396.019 73.3009C402.295 94.5707 400.748 117.707 394.195 138.707Z" fill="#5E6098"/>
<path d="M184.712 40.8602C179.536 47.9549 174.269 54.6193 171.085 63.235C169.562 67.3644 168.41 70.7833 167.628 73.4918C163.827 86.6305 163.645 109.496 177.99 117.311C187.037 122.234 201.645 121.443 207.114 111.437C212.209 102.101 210.289 92.5944 208.489 82.2176C207.95 79.1022 208.159 75.7867 209.116 72.271C211.562 63.3351 220.549 58.4619 229.496 59.2424C245.833 60.6733 253.576 79.2856 255.355 92.9647C259.167 122.244 245.499 153.134 229.567 177.05C209.985 206.42 182.67 233.417 153.04 252.85C140.333 261.196 125.644 268.621 110.864 271.863C108.802 272.313 107.417 271.623 105.749 270.262C99.1176 264.828 91.7985 259.375 85.8341 254.061C68.6282 238.741 53.0398 223.191 38.4017 202.837C19.3559 176.37 4.00003 146.07 0.542683 114.729C-0.0436516 109.432 -0.15487 103.028 0.209061 95.5163C0.532556 88.6385 1.42891 82.3243 2.89812 76.5738C16.404 23.6689 66.3233 -9.90328 121.146 2.62499C144.003 7.83843 164.059 20.9471 181.396 36.1171C182.738 37.2912 183.853 38.6188 184.743 40.0997C184.812 40.2159 184.846 40.3495 184.841 40.4844C184.836 40.6193 184.791 40.7499 184.712 40.8602Z" fill="#70ADD4" fill-opacity="0.984"/>
</svg>
