<svg width="48" height="48" viewBox="0 0 48 48" fill="none" xmlns="http://www.w3.org/2000/svg">
<rect width="48" height="48" rx="12" fill="url(#paint0_linear_190_90)"/>
<path d="M24 20.25C24.7956 20.25 25.5587 19.9339 26.1213 19.3713C26.6839 18.8087 27 18.0456 27 17.25C27 16.4544 26.6839 15.6913 26.1213 15.1287C25.5587 14.5661 24.7956 14.25 24 14.25C23.2044 14.25 22.4413 14.5661 21.8787 15.1287C21.3161 15.6913 21 16.4544 21 17.25C21 18.0456 21.3161 18.8087 21.8787 19.3713C22.4413 19.9339 23.2044 20.25 24 20.25ZM19.5 17.625C19.5 17.9697 19.4321 18.3111 19.3002 18.6295C19.1683 18.948 18.9749 19.2374 18.7312 19.4812C18.4874 19.7249 18.198 19.9183 17.8795 20.0502C17.5611 20.1821 17.2197 20.25 16.875 20.25C16.5303 20.25 16.1889 20.1821 15.8705 20.0502C15.552 19.9183 15.2626 19.7249 15.0188 19.4812C14.7751 19.2374 14.5817 18.948 14.4498 18.6295C14.3179 18.3111 14.25 17.9697 14.25 17.625C14.25 16.9288 14.5266 16.2611 15.0188 15.7688C15.5111 15.2766 16.1788 15 16.875 15C17.5712 15 18.2389 15.2766 18.7312 15.7688C19.2234 16.2611 19.5 16.9288 19.5 17.625ZM33.75 17.625C33.75 17.9697 33.6821 18.3111 33.5502 18.6295C33.4183 18.948 33.2249 19.2374 32.9812 19.4812C32.7374 19.7249 32.448 19.9183 32.1295 20.0502C31.8111 20.1821 31.4697 20.25 31.125 20.25C30.7803 20.25 30.4389 20.1821 30.1205 20.0502C29.802 19.9183 29.5126 19.7249 29.2688 19.4812C29.0251 19.2374 28.8317 18.948 28.6998 18.6295C28.5679 18.3111 28.5 17.9697 28.5 17.625C28.5 16.9288 28.7766 16.2611 29.2688 15.7688C29.7611 15.2766 30.4288 15 31.125 15C31.8212 15 32.4889 15.2766 32.9812 15.7688C33.4734 16.2611 33.75 16.9288 33.75 17.625ZM19.0328 21.75C18.606 22.2816 18.3739 22.9433 18.375 23.625V29.25C18.375 30.1763 18.5985 31.05 18.9952 31.8202C18.4237 32.1208 17.7841 32.2687 17.1386 32.2495C16.4931 32.2303 15.8635 32.0447 15.3107 31.7108C14.758 31.3768 14.3009 30.9057 13.9836 30.3432C13.6664 29.7807 13.4998 29.1458 13.5 28.5V23.625C13.5 23.1277 13.6975 22.6508 14.0492 22.2992C14.4008 21.9475 14.8777 21.75 15.375 21.75H19.0328ZM29.0048 31.8202C29.4137 31.0253 29.6263 30.144 29.625 29.25V23.625C29.625 22.9155 29.379 22.2638 28.9672 21.75H32.625C33.1223 21.75 33.5992 21.9475 33.9508 22.2992C34.3025 22.6508 34.5 23.1277 34.5 23.625V28.5C34.5002 29.1458 34.3336 29.7807 34.0164 30.3432C33.6991 30.9057 33.242 31.3768 32.6893 31.7108C32.1365 32.0447 31.5069 32.2303 30.8614 32.2495C30.2159 32.2687 29.5763 32.1208 29.0048 31.8202ZM21.375 21.75C20.8777 21.75 20.4008 21.9475 20.0492 22.2992C19.6975 22.6508 19.5 23.1277 19.5 23.625V29.25C19.5 30.4435 19.9741 31.5881 20.818 32.432C21.6619 33.2759 22.8065 33.75 24 33.75C25.1935 33.75 26.3381 33.2759 27.182 32.432C28.0259 31.5881 28.5 30.4435 28.5 29.25V23.625C28.5 23.1277 28.3025 22.6508 27.9508 22.2992C27.5992 21.9475 27.1223 21.75 26.625 21.75H21.375Z" fill="white"/>
<defs>
<linearGradient id="paint0_linear_190_90" x1="0" y1="0" x2="48" y2="48" gradientUnits="userSpaceOnUse">
<stop stop-color="#294B71"/>
<stop offset="1" stop-color="#5E6098"/>
</linearGradient>
</defs>
</svg>
